HIERARCHY
ROOT Hips
{
     OFFSET 59.69950 88.04740 -16.06710
     CHANNELS 6 Xposition Yposition Zposition Zrotation Xrotation Yrotation
     JOINT Spine
     {
          OFFSET 0.00000 11.89050 0.00000
          CHANNELS 3 Zrotation Xrotation Yrotation
          JOINT Spine1
          {
               OFFSET 0.00000 25.65740 0.12766
               CHANNELS 3 Zrotation Xrotation Yrotation
               JOINT HEad
               {
                    OFFSET 0.00000 8.73416 0.01134
                    CHANNELS 3 Zrotation Xrotation Yrotation
                    End Site
                    {
                         OFFSET -0.29000 12.77420 2.51395
                    }
               }
               JOINT LeftShoulder1
               {
                    OFFSET 8.99000 -0.36225 -0.22000
                    CHANNELS 3 Zrotation Xrotation Yrotation
                    JOINT LeftArm
                    {
                         OFFSET 10.28270 -0.00338 0.32212
                         CHANNELS 3 Zrotation Xrotation Yrotation
                         JOINT LeftForeArm
                         {
                              OFFSET 32.76690 0.09914 -1.42434
                              CHANNELS 3 Zrotation Xrotation Yrotation
                              JOINT LeftHand
                              {
                                   OFFSET 27.56430 0.08536 1.02216
                                   CHANNELS 3 Zrotation Xrotation Yrotation
                                   End Site
                                   {
                                        OFFSET 16.74430 -0.60000 1.50291
                                   }
                              }
                         }
                    }
               }
               JOINT RightShoulder
               {
                    OFFSET -8.99000 -0.36225 -0.22000
                    CHANNELS 3 Zrotation Xrotation Yrotation
                    JOINT RightArm
                    {
                         OFFSET -10.28270 -0.00338 0.32212
                         CHANNELS 3 Zrotation Xrotation Yrotation
                         JOINT RightForeArm
                         {
                              OFFSET -32.89710 0.09914 -1.42434
                              CHANNELS 3 Zrotation Xrotation Yrotation
                              JOINT RightHand
                              {
                                   OFFSET -27.49210 0.08536 1.02216
                                   CHANNELS 3 Zrotation Xrotation Yrotation
                                   End Site
                                   {
                                        OFFSET -16.63120 -0.60000 1.50291
                                   }
                              }
                         }
                    }
               }
          }
     }
     JOINT LeftUpLeg
     {
          OFFSET 8.94580 -8.66707 0.10165
          CHANNELS 3 Zrotation Xrotation Yrotation
          JOINT LeftLeg
          {
               OFFSET 0.00000 -44.42270 1.37270
               CHANNELS 3 Zrotation Xrotation Yrotation
               JOINT LeftFoot
               {
                    OFFSET -0.25355 -42.09240 -1.46059
                    CHANNELS 3 Zrotation Xrotation Yrotation
                    JOINT LeftToes
                    {
                         OFFSET -0.04000 -4.41509 8.49910
                         CHANNELS 3 Zrotation Xrotation Yrotation
                         End Site
                         {
                              OFFSET 0.08000 -0.04745 9.77979
                         }
                    }
               }
          }
     }
     JOINT RightUpLeg
     {
          OFFSET -8.94580 -8.66707 0.10165
          CHANNELS 3 Zrotation Xrotation Yrotation
          JOINT RightLeg
          {
               OFFSET 0.00000 -44.42270 1.37270
               CHANNELS 3 Zrotation Xrotation Yrotation
               JOINT RightFoot
               {
                    OFFSET 0.25355 -42.09240 -1.46059
                    CHANNELS 3 Zrotation Xrotation Yrotation
                    JOINT RightToes
                    {
                         OFFSET 0.04000 -4.41509 8.49910
                         CHANNELS 3 Zrotation Xrotation Yrotation
                         End Site
                         {
                              OFFSET -0.08000 -0.13745 9.77979
                         }
                    }
               }
          }
     }
}
MOTION
Frames: 17
Frame Time: 0.01667
26.62430 90.12950 57.37340 4.71707 4.06692 120.44600 0.23470 9.07155 -0.45856 -0.05574 18.22130 -0.76346 -19.90710 -1.91865 32.46560 0.00000 0.00000 0.00000 -46.49240 -51.13250 -50.38110 -176.25900 -18.86640 -107.75900 -18.07780 1.09272 54.24040 7.80207 0.87428 4.76040 69.14520 -9.84028 72.10330 -5.88143 30.14410 105.32800 9.78043 10.22170 -0.77576 33.04120 -11.78500 2.92337 -15.62590 39.07540 28.75720 -7.13873 5.63809 0.77780 -12.82270 -20.08120 1.66471 -26.20700 -19.09210 -3.58883 1.69478 44.39450 0.49982 18.52800 -13.41330 0.74311 -4.00040 -4.03851 -20.06750 
25.66600 89.55720 56.38780 5.58489 4.31314 124.29000 0.82167 9.06096 -1.32414 1.03781 18.17270 -2.62121 -19.06230 -0.53560 31.27000 0.00000 0.00000 0.00000 -51.11670 -51.51110 -52.39200 -177.95900 -19.91300 -106.96700 -17.49650 1.53841 53.38960 8.25893 0.85818 4.39439 68.32670 -12.15270 69.78280 -4.77523 29.90530 107.41900 11.21340 10.17550 -1.65144 31.99960 -13.38290 3.63648 -12.70130 40.60030 25.13170 -7.05036 5.01524 0.73324 -16.87880 -24.96300 -0.13952 -26.26310 -17.02970 -0.93468 2.45126 45.06840 -2.69550 19.49350 -11.98480 0.55249 -5.58755 -6.01296 -24.41550 
24.86880 89.18730 55.72920 6.22067 4.79367 129.79900 1.58306 8.94665 -2.15407 2.03543 17.93270 -4.33954 -18.20610 1.14033 29.08770 0.00000 0.00000 0.00000 -54.54890 -48.69850 -54.95880 -179.23500 -19.28340 -107.58700 -18.50820 1.43387 51.56750 9.58180 0.83349 3.63511 66.44950 -15.46050 66.12330 -3.01809 29.54710 110.63200 12.27620 10.11450 -2.41526 30.73920 -16.20700 4.38889 -9.64224 42.04650 19.93220 -7.64997 4.73253 0.78260 -19.95940 -27.02800 -3.22928 -26.13190 -14.20110 2.19277 3.85162 45.81760 -6.99586 20.50630 -10.48450 0.32631 -7.06350 -6.84661 -29.88840 
24.31700 89.01250 55.35680 6.48486 5.46355 136.57899 2.34918 8.77196 -2.81533 2.77211 17.63350 -5.66537 -17.02120 2.95772 25.78190 0.00000 0.00000 0.00000 -57.71400 -44.51710 -58.02680 -179.96300 -18.96990 -107.28700 -21.08260 0.79560 49.24460 11.14680 0.77960 2.72322 63.98900 -19.20510 61.42130 -0.96183 29.25290 114.75900 12.60940 10.06040 -2.93257 29.06120 -19.59140 4.71328 -6.47579 42.77050 13.37810 -8.89632 4.80755 0.92305 -21.31800 -26.74990 -5.90853 -25.76720 -10.89040 4.87956 5.26947 46.71170 -10.90880 21.65340 -9.32429 0.13870 -7.67764 -5.78076 -35.49470 
24.06460 89.05080 55.18370 6.26375 6.21899 144.13300 2.99195 8.54183 -3.18276 3.17025 17.29940 -6.39536 -15.22680 4.95681 21.24630 0.00000 0.00000 0.00000 -61.65370 -40.30800 -61.44050 179.30600 -20.38640 -104.99600 -23.71910 0.02542 47.77420 12.38460 0.70454 1.90612 61.60920 -22.73920 56.32680 1.01609 29.26990 119.25200 12.48860 10.01520 -3.31606 26.78040 -22.76440 4.59839 -3.25698 42.14710 5.87546 -10.48800 4.92425 1.10686 -20.83330 -24.88840 -7.36979 -25.12810 -7.32078 6.39103 6.04329 47.60080 -12.90530 22.80530 -8.82982 0.05867 -7.25178 -3.34858 -40.41790 
24.07780 89.29540 55.12260 5.55427 6.93702 151.95000 3.45622 8.26277 -3.17203 3.23191 16.93020 -6.38561 -12.73240 7.09000 15.45910 0.00000 0.00000 0.00000 -66.97490 -36.69780 -64.73240 178.52200 -24.20130 -100.64500 -25.11740 -0.60445 47.92360 12.92330 0.63171 1.33115 59.96970 -25.50020 52.01940 2.52199 29.62660 123.29300 12.62510 9.94903 -3.90032 23.95280 -25.16190 4.34810 -0.32193 39.96390 -1.68830 -11.92920 4.74014 1.24818 -18.74110 -21.95770 -7.45333 -24.19420 -3.67391 6.57272 5.90233 48.24310 -12.13550 23.73680 -9.17447 0.13960 -6.41936 -0.96834 -44.14860 
24.25480 89.64680 55.12100 4.49351 7.52147 159.59200 3.78169 7.97274 -2.76422 3.03798 16.58040 -5.59269 -9.63997 9.06657 8.54459 0.00000 0.00000 0.00000 -73.20590 -33.74100 -67.14410 178.26300 -29.87250 -94.72950 -25.22650 -1.00781 49.24140 12.61910 0.57913 1.04661 59.46040 -27.24530 49.96440 3.08400 29.93200 126.05200 13.63420 9.79575 -5.16478 20.86940 -26.67790 4.18369 1.87357 36.66250 -8.22246 -12.85460 4.25789 1.29821 -15.59410 -18.37270 -6.45532 -22.96390 -0.16903 5.82045 5.17448 48.57870 -8.78804 24.36110 -10.53010 0.43577 -6.15614 -0.09032 -46.10570 
24.46890 89.95720 55.15290 3.31063 7.96329 166.73199 4.11311 7.72838 -1.99966 2.73057 16.36500 -4.07316 -6.22795 10.43550 0.83537 0.00000 0.00000 0.00000 -79.06440 -31.29070 -68.14080 178.93401 -35.79690 -87.94620 -24.96640 -1.33371 50.86460 11.52800 0.55225 1.05196 60.04300 -28.30100 51.30060 2.17340 29.65620 126.88100 15.59100 9.45849 -7.44733 17.81650 -27.56690 4.00185 3.20600 33.10390 -13.04590 -13.30660 3.85350 1.30136 -12.16040 -14.66370 -4.89650 -21.48550 3.00132 4.73834 4.51873 48.71890 -3.98166 24.70090 -12.99740 0.97860 -6.89940 -1.34176 -45.49580 
24.62920 90.10830 55.21990 2.19405 8.36065 173.09700 4.54570 7.59467 -0.93978 2.43712 16.41360 -1.93641 -2.96572 10.86230 -7.07524 0.00000 0.00000 0.00000 -83.49910 -29.25410 -67.85020 -179.76100 -40.51210 -81.20120 -25.25230 -1.84540 52.23760 9.80738 0.54599 1.33915 61.44170 -29.35120 56.31520 -0.66422 28.72490 125.20100 18.12200 8.90445 -10.39690 14.94170 -28.12640 3.55211 3.96622 30.07710 -16.10750 -13.61980 3.90552 1.33902 -9.16705 -11.46240 -3.25187 -19.91630 5.69763 3.82137 4.45524 48.83030 0.63598 24.73740 -16.31160 1.70524 -7.91898 -3.91129 -42.06200 
24.70700 90.06730 55.34180 1.18445 8.84146 178.39500 5.01471 7.63400 0.35533 2.18624 16.80630 0.70588 -0.39161 10.40630 -14.41710 0.00000 0.00000 0.00000 -83.23910 -25.72730 -65.90830 -178.29401 -40.08630 -75.84500 -26.27900 -2.50072 52.81650 7.58745 0.54762 1.91280 63.45540 -30.60940 64.34490 -5.67600 27.86040 120.30600 20.81700 8.29678 -12.84080 12.34160 -28.47050 2.75436 4.43246 27.98610 -17.75020 -13.98130 4.37274 1.42991 -6.94739 -9.10315 -1.80887 -18.53920 7.81561 3.29496 5.06304 49.01390 3.60396 24.46360 -19.72880 2.43088 -8.28762 -6.29110 -37.03220 
24.70650 89.88700 55.53610 0.22824 9.47293 -177.67500 5.37280 7.87857 1.82881 1.91467 17.53260 3.75624 1.16969 9.50203 -20.54620 0.00000 0.00000 0.00000 -82.40640 -22.87280 -64.22830 -177.17999 -38.69730 -71.85430 -27.93720 -3.25871 52.67510 4.89588 0.53666 2.80254 65.64180 -31.35110 73.95540 -12.81220 28.37100 111.38100 23.04660 7.97040 -13.58160 10.19890 -28.55330 1.81099 4.57625 26.87230 -18.40150 -14.31960 4.85782 1.52332 -5.40672 -7.37975 -0.85085 -17.65450 9.29377 3.10192 5.97716 49.32440 4.43641 23.91510 -22.48390 2.96508 -8.08360 -7.79833 -32.40850 
24.63220 89.63770 55.80820 -0.69223 10.25670 -175.28200 5.56045 8.29703 3.40606 1.55520 18.49220 7.10767 1.76751 8.61457 -25.26310 0.00000 0.00000 0.00000 -81.98060 -21.15400 -63.05960 -176.27100 -37.35620 -68.97060 -29.69450 -3.87600 51.95680 1.69924 0.47981 4.03596 64.39180 -29.99540 81.98440 -21.11890 29.39600 96.53220 23.96700 8.19166 -12.21250 8.73562 -28.33960 1.10250 4.27330 26.57290 -18.37960 -14.55280 5.07359 1.57512 -4.36513 -5.94295 -0.72032 -17.42270 10.15010 3.03569 6.70439 49.85860 3.68376 23.08700 -24.30170 3.23289 -7.76127 -8.50043 -29.41180 
24.47760 89.36990 56.12720 -1.51809 11.13780 -174.29900 5.63846 8.79732 5.00324 1.09809 19.52210 10.60720 1.73159 7.92715 -28.84230 0.00000 0.00000 0.00000 -82.05100 -20.29260 -62.33140 -175.51100 -36.20780 -67.02800 -31.00290 -4.18890 51.03100 -1.96915 0.33252 5.54707 44.42600 -23.36470 80.65850 -27.59630 18.74170 66.85900 24.48350 8.95366 -8.61086 8.01491 -27.88510 0.93371 3.58770 26.81490 -17.89140 -14.66660 5.03667 1.58344 -3.71462 -4.66764 -1.49078 -17.79710 10.52530 2.90235 6.97745 50.62510 2.31531 22.01430 -25.33450 3.27384 -7.46163 -8.54851 -27.97110 
24.26120 89.10850 56.42750 -2.17084 11.98830 -174.22900 5.69773 9.26054 6.53213 0.58116 20.43240 14.05090 1.53619 7.36031 -31.76240 0.00000 0.00000 0.00000 -82.55430 -19.78630 -62.02320 -174.96400 -35.43070 -65.90590 -31.54780 -4.21504 50.36260 -5.85238 0.07155 7.09277 27.09510 -18.99420 81.23570 -25.76950 14.05420 32.57270 21.37420 9.73601 -5.17605 7.84379 -27.36310 1.32042 2.78581 27.31640 -17.23820 -14.65820 4.89817 1.56568 -3.36232 -3.59639 -2.84772 -18.53720 10.64970 2.58267 6.88852 51.45880 1.01180 20.80790 -25.80830 3.16464 -7.22170 -8.38176 -27.23530 
24.04500 88.86740 56.63060 -2.62482 12.65140 -174.33501 5.77962 9.58362 7.90319 0.04994 21.05870 17.19730 1.71290 6.78095 -34.37160 0.00000 0.00000 0.00000 -83.24050 -19.05350 -62.11170 -174.55499 -35.01750 -65.40370 -31.24300 -4.00762 50.17150 -9.41793 -0.25250 8.29258 19.37260 -18.83800 84.30520 -16.36130 11.76160 4.57042 17.55940 9.95015 -4.00821 7.85831 -27.00840 1.98673 2.18890 27.87730 -16.87400 -14.55980 4.78335 1.54091 -3.21478 -2.81416 -4.27573 -19.30230 10.81240 2.08079 6.80744 52.08720 -0.17715 19.54500 -25.84240 2.95683 -7.20546 -8.69665 -26.51220 
23.90390 88.65410 56.68440 -2.91381 13.05680 -173.94099 5.87659 9.71653 9.00018 -0.44551 21.33080 19.74700 2.62725 6.10589 -36.65380 0.00000 0.00000 0.00000 -83.80410 -17.78920 -62.43330 -173.99200 -34.71160 -65.16550 -30.11410 -3.53176 50.31060 -12.06350 -0.52095 8.84343 18.99710 -20.47490 87.88830 -4.84288 7.47820 -2.52856 17.05460 9.83326 -4.75749 7.71305 -26.98430 2.51980 2.01004 28.40880 -17.15840 -14.46830 4.75405 1.52735 -3.18249 -2.36766 -5.29980 -19.75470 11.29720 1.53379 7.07048 52.30690 -1.52294 18.33470 -25.55200 2.70367 -7.51153 -9.75696 -25.76890 
23.87390 88.47070 56.59280 -3.06913 13.28660 -172.75500 5.96234 9.68503 9.67766 -0.84841 21.31780 21.36690 4.16774 5.33179 -38.16080 0.00000 0.00000 0.00000 -84.04240 -16.25170 -62.65350 -173.06500 -34.24070 -64.83720 -28.30220 -2.75889 50.50710 -13.42510 -0.64341 8.77780 20.69860 -21.54020 89.82810 1.23541 5.07739 -5.05139 19.57080 9.65771 -5.69738 7.24865 -27.26530 2.61492 2.29914 28.90270 -18.12680 -14.50580 4.78710 1.53542 -3.14536 -2.14089 -5.76086 -19.63440 12.24160 1.13015 7.65401 52.11280 -3.05875 17.39050 -25.11620 2.47841 -8.03514 -11.15640 -25.37510 
